HIERARCHY
ROOT 00
{
	OFFSET -0.002722 -0.275211 0.029244
	CHANNELS 6 Xposition Yposition Zposition Xrotation Yrotation Zrotation
	JOINT 01
	{
		OFFSET 0.067958 -0.108350 -0.013373
		CHANNELS 3 Xrotation Yrotation Zrotation
		JOINT 04
		{
			OFFSET 0.030473 -0.389948 -0.004933
			CHANNELS 3 Xrotation Yrotation Zrotation
			JOINT 07
			{
				OFFSET -0.013689 -0.424420 -0.047589
				CHANNELS 3 Xrotation Yrotation Zrotation
				JOINT 10
				{
					OFFSET 0.003986 -0.059328 0.116825
					CHANNELS 3 Xrotation Yrotation Zrotation
					End Site
					{
						OFFSET 0 0 0
					}
				}
			}
		}
	}
	JOINT 02
	{
		OFFSET -0.062246 -0.106643 -0.002519
		CHANNELS 3 Xrotation Yrotation Zrotation
		JOINT 05
		{
			OFFSET -0.039794 -0.403082 -0.002159
			CHANNELS 3 Xrotation Yrotation Zrotation
			JOINT 08
			{
				OFFSET 0.019040 -0.422077 -0.042243
				CHANNELS 3 Xrotation Yrotation Zrotation
				JOINT 11
				{
					OFFSET -0.005985 -0.042329 0.112309
					CHANNELS 3 Xrotation Yrotation Zrotation
					End Site
					{
						OFFSET 0 0 0
					}
				}
			}
		}
	}
	JOINT 03
	{
		OFFSET -0.003265 0.126484 -0.018556
		CHANNELS 3 Xrotation Yrotation Zrotation
		JOINT 06
		{
			OFFSET 0.006424 0.178783 0.002876
			CHANNELS 3 Xrotation Yrotation Zrotation
			JOINT 09
			{
				OFFSET -0.000354 0.060611 0.032919
				CHANNELS 3 Xrotation Yrotation Zrotation
				JOINT 12
				{
					OFFSET -0.001649 0.260542 -0.081469
					CHANNELS 3 Xrotation Yrotation Zrotation
					JOINT 15
					{
						OFFSET 0.005934 0.074012 0.054189
						CHANNELS 3 Xrotation Yrotation Zrotation
						End Site
						{
							OFFSET 0 0 0
						}
					}
				}
				JOINT 13
				{
					OFFSET 0.067646 0.140674 -0.054989
					CHANNELS 3 Xrotation Yrotation Zrotation
					JOINT 16
					{
						OFFSET 0.075599 0.028715 0.006546
						CHANNELS 3 Xrotation Yrotation Zrotation
						JOINT 18
						{
							OFFSET 0.280934 -0.015333 -0.020459
							CHANNELS 3 Xrotation Yrotation Zrotation
							JOINT 20
							{
								OFFSET 0.258480 0.009808 0.003355
								CHANNELS 3 Xrotation Yrotation Zrotation
								JOINT 22
								{
									OFFSET 0.075546 -0.015673 -0.008918
									CHANNELS 3 Xrotation Yrotation Zrotation
									End Site
									{
										OFFSET 0 0 0
									}
								}
							}
						}
					}
				}
				JOINT 14
				{
					OFFSET -0.068415 0.137695 -0.054798
					CHANNELS 3 Xrotation Yrotation Zrotation
					JOINT 17
					{
						OFFSET -0.081406 0.029093 -0.000244
						CHANNELS 3 Xrotation Yrotation Zrotation
						JOINT 19
						{
							OFFSET -0.281374 -0.019086 -0.009475
							CHANNELS 3 Xrotation Yrotation Zrotation
							JOINT 21
							{
								OFFSET -0.278499 0.012992 -0.009418
								CHANNELS 3 Xrotation Yrotation Zrotation
								JOINT 23
								{
									OFFSET -0.076459 -0.010363 -0.010215
									CHANNELS 3 Xrotation Yrotation Zrotation
									End Site
									{
										OFFSET 0 0 0
									}
								}
							}
						}
					}
				}
			}
		}
	}
}
MOTION
Frames: 13
Frame Time: 1.00000000
-0.002722 -0.275211 0.029244 1.044216 -4.106747 -1.381614 -2.570158 6.721598 1.764514 7.809304 -0.095761 -0.547252 -6.462117 -0.101663 0.415544 0.000000 0.000000 0.000000 -5.623608 -7.085772 3.139418 13.266351 1.682334 -1.181386 -8.462673 -0.005167 -1.328470 0.000000 0.000000 0.000000 0.688657 -0.079459 0.253734 -1.257135 -0.011249 -0.012367 -1.257109 -0.018363 -0.012057 -11.617227 2.543408 9.555104 0.000000 0.000000 0.000000 -0.043223 7.289037 -10.151800 -2.844805 -24.904154 -68.247902 -0.242588 0.510306 -4.885370 -12.313341 6.470157 12.045532 0.000000 0.000000 -0.000000 -2.787566 -11.988983 -4.045608 -52.485134 19.272385 20.038876 -174.806107 58.586193 175.891312 9.186459 -16.424627 -36.193932 0.000000 0.000000 0.000000 
-0.002722 -0.275211 0.029244 1.057261 -4.179109 -1.359467 -2.529609 6.710829 1.719472 7.753931 -0.009216 -0.545628 -6.456975 -0.101052 0.422942 0.000000 0.000000 0.000000 -5.651927 -7.095344 3.100891 13.295624 1.770434 -1.187161 -8.475648 -0.005797 -1.320237 0.000000 0.000000 0.000000 0.690748 -0.094671 0.255421 -1.256679 -0.017433 -0.012737 -1.256643 -0.024482 -0.012262 -11.628365 2.533648 9.576969 -0.000000 0.000000 0.000000 -0.052349 7.306352 -10.117051 -2.924280 -24.940678 -68.383057 -0.238356 0.599433 -4.885168 -12.457089 6.593824 11.906685 0.000000 0.000000 0.000000 -2.804994 -12.028399 -4.108631 -52.444271 19.286180 19.987856 -175.218124 56.459232 176.244186 25.955921 -11.657100 -28.664835 0.000000 0.000000 0.000000 
-0.002722 -0.275211 0.029244 1.082345 -4.253111 -1.335592 -2.494437 6.703085 1.675810 7.678696 0.075302 -0.547871 -6.438591 -0.100577 0.431617 0.000000 0.000000 0.000000 -5.692049 -7.100770 3.063917 13.317852 1.850912 -1.193027 -8.482240 -0.006651 -1.312556 0.000000 0.000000 0.000000 0.693469 -0.104342 0.256816 -1.256656 -0.021488 -0.010404 -1.256611 -0.028451 -0.009821 -11.656346 2.515920 9.585458 0.000000 0.000000 0.000000 -0.071232 7.338210 -10.046232 -3.034044 -24.977390 -68.567703 -0.233370 0.704513 -4.884984 -12.616013 6.731633 11.757350 0.000000 0.000000 0.000000 -2.808990 -12.017941 -4.124038 -52.754726 19.027803 20.064137 -175.563354 54.469357 176.533524 40.576019 -5.660531 -21.180040 0.000000 0.000000 0.000000 
-0.002722 -0.275211 0.029244 1.116682 -4.302667 -1.315066 -2.480979 6.699477 1.644171 7.615152 0.129786 -0.557828 -6.420134 -0.101124 0.444525 0.000000 0.000000 0.000000 -5.737317 -7.109489 3.030842 13.333076 1.909622 -1.194304 -8.486402 -0.007846 -1.306164 0.000000 0.000000 0.000000 0.695905 -0.105620 0.256742 -1.256389 -0.022197 -0.006836 -1.256341 -0.029102 -0.006234 -11.700285 2.487713 9.600616 0.000000 0.000000 0.000000 -0.093673 7.376104 -9.962276 -3.153088 -25.005171 -68.772095 -0.228316 0.810777 -4.884814 -12.707679 6.893951 11.609375 0.000000 0.000000 -0.000000 -2.792100 -11.971582 -4.063346 -53.167786 18.579662 20.101768 -175.848709 52.661896 176.767548 49.233009 0.802126 -15.109735 -0.000000 0.000000 -0.000000 
-0.002722 -0.275211 0.029244 1.151344 -4.314562 -1.301758 -2.490464 6.697894 1.626843 7.583027 0.145233 -0.570876 -6.411574 -0.102997 0.459732 0.000000 0.000000 0.000000 -5.776311 -7.121383 3.005644 13.344434 1.936835 -1.191837 -8.493841 -0.009503 -1.299737 0.000000 0.000000 0.000000 0.698738 -0.101188 0.256594 -1.257483 -0.020545 -0.006035 -1.257439 -0.027452 -0.005478 -11.739721 2.457842 9.627014 -0.000000 0.000000 0.000000 -0.112852 7.411135 -9.890044 -3.254867 -25.018114 -68.959793 -0.224110 0.899301 -4.884644 -12.718652 7.076922 11.464859 0.000000 0.000000 -0.000000 -2.760634 -11.913030 -3.948580 -53.477367 17.988903 20.080948 -176.044571 51.326050 176.925217 50.931381 5.292906 -11.178133 0.000000 0.000000 0.000000 
-0.002722 -0.275211 0.029244 1.175256 -4.300086 -1.299719 -2.512797 6.694777 1.621944 7.590121 0.140847 -0.577505 -6.420040 -0.105287 0.470891 0.000000 0.000000 0.000000 -5.795436 -7.129777 2.994740 13.348938 1.935087 -1.189614 -8.503525 -0.011743 -1.291830 0.000000 0.000000 0.000000 0.702137 -0.097173 0.258721 -1.261068 -0.018929 -0.010722 -1.261030 -0.025878 -0.010204 -11.747512 2.437564 9.663065 0.000000 0.000000 0.000000 -0.125007 7.437403 -9.843343 -3.310869 -25.012657 -69.097885 -0.222046 0.942818 -4.884562 -12.697703 7.265179 11.316687 0.000000 0.000000 0.000000 -2.723373 -11.852422 -3.811782 -53.683620 17.250376 20.094358 -176.103577 50.907909 176.972168 46.576462 5.951104 -9.652375 0.000000 0.000000 0.000000 
-0.002722 -0.275211 0.029244 1.183020 -4.278615 -1.309533 -2.530681 6.688478 1.625538 7.617785 0.134776 -0.573453 -6.438684 -0.106902 0.474819 0.000000 0.000000 0.000000 -5.788087 -7.131350 2.999584 13.338332 1.916697 -1.189705 -8.507805 -0.013624 -1.282417 0.000000 -0.000000 0.000000 0.704834 -0.097494 0.262472 -1.264686 -0.018930 -0.019951 -1.264650 -0.025948 -0.019430 -11.717315 2.427710 9.712024 -0.000000 -0.000000 -0.000000 -0.129931 7.451954 -9.823467 -3.297400 -24.986517 -69.165535 -0.223663 0.908736 -4.884620 -12.694867 7.443856 11.157397 0.000000 0.000000 0.000000 -2.680792 -11.786738 -3.654693 -53.810966 16.416496 20.173847 -176.006912 51.589626 176.895096 37.401371 3.848563 -10.032825 0.000000 0.000000 0.000000 
-0.002722 -0.275211 0.029244 1.178863 -4.256274 -1.324567 -2.536615 6.679646 1.631824 7.642887 0.124366 -0.563055 -6.455287 -0.107018 0.474475 0.000000 0.000000 0.000000 -5.762525 -7.130506 3.011935 13.313990 1.895004 -1.191164 -8.504151 -0.014576 -1.273112 0.000000 0.000000 0.000000 0.706697 -0.101044 0.266723 -1.266032 -0.020159 -0.031819 -1.266000 -0.027246 -0.031261 -11.666445 2.421240 9.773938 -0.000000 0.000000 0.000000 -0.129043 7.453248 -9.826057 -3.204870 -24.939438 -69.159744 -0.230104 0.773146 -4.884866 -12.712411 7.607114 10.986725 0.000000 0.000000 0.000000 -2.633881 -11.716989 -3.480796 -53.838409 15.585983 20.270844 -175.776413 53.134598 176.708740 24.167385 1.111153 -12.070072 0.000000 0.000000 0.000000 
-0.002722 -0.275211 0.029244 1.171613 -4.228016 -1.335167 -2.528714 6.669993 1.632850 7.643433 0.100802 -0.553556 -6.457445 -0.106258 0.475789 0.000000 0.000000 0.000000 -5.732387 -7.135626 3.018374 13.283051 1.877069 -1.190070 -8.495761 -0.015219 -1.265888 0.000000 0.000000 0.000000 0.708162 -0.104389 0.271536 -1.265420 -0.021300 -0.044819 -1.265395 -0.028446 -0.044225 -11.612752 2.414265 9.839575 0.000000 0.000000 0.000000 -0.123988 7.441466 -9.845638 -3.045477 -24.875891 -69.097237 -0.241101 0.541637 -4.885280 -12.712445 7.755988 10.811264 0.000000 0.000000 -0.000000 -2.591083 -11.657762 -3.321371 -53.815453 14.785370 20.335087 -175.443008 55.186466 176.433365 7.866298 -0.726608 -14.865151 0.000000 0.000000 0.000000 
-0.002722 -0.275211 0.029244 1.167589 -4.193585 -1.336587 -2.514841 6.662423 1.625500 7.623163 0.066565 -0.549579 -6.446900 -0.105943 0.482171 0.000000 0.000000 0.000000 -5.707801 -7.148382 3.011706 13.253987 1.860269 -1.183922 -8.488024 -0.016289 -1.260692 0.000000 0.000000 0.000000 0.708473 -0.105138 0.276870 -1.264209 -0.021453 -0.056733 -1.264190 -0.028622 -0.056131 -11.563989 2.407446 9.898693 0.000000 0.000000 0.000000 -0.116958 7.421001 -9.873953 -2.853456 -24.807144 -69.011017 -0.254287 0.264069 -4.885840 -12.666158 7.889280 10.636820 0.000000 0.000000 0.000000 -2.559204 -11.619254 -3.202110 -53.821156 14.023596 20.343224 -175.022644 57.499687 176.077698 -8.956937 -1.826434 -17.516590 -0.000000 0.000000 0.000000 
-0.002722 -0.275211 0.029244 1.169768 -4.161583 -1.330414 -2.504155 6.660477 1.613351 7.594970 0.032440 -0.551700 -6.430719 -0.106522 0.492122 0.000000 0.000000 0.000000 -5.697314 -7.158657 2.996801 13.236760 1.840771 -1.176735 -8.485316 -0.018324 -1.255866 0.000000 0.000000 0.000000 0.706197 -0.102351 0.283209 -1.262832 -0.020296 -0.065263 -1.262819 -0.027404 -0.064691 -11.523026 2.402603 9.945524 0.000000 0.000000 -0.000000 -0.111192 7.401286 -9.897948 -2.674533 -24.749392 -68.941124 -0.265463 0.028928 -4.886404 -12.588249 7.997995 10.464139 0.000000 0.000000 0.000000 -2.538705 -11.592213 -3.125322 -53.800095 13.373238 20.265392 -174.529694 59.880138 175.650589 -23.126844 -3.138349 -20.056841 0.000000 0.000000 -0.000000 
-0.002722 -0.275211 0.029244 1.180471 -4.140598 -1.317895 -2.503476 6.662154 1.597546 7.567981 0.009342 -0.556222 -6.413665 -0.107193 0.501641 0.000000 0.000000 0.000000 -5.709556 -7.157354 2.979873 13.239835 1.820669 -1.175221 -8.489454 -0.020633 -1.249806 0.000000 0.000000 0.000000 0.702153 -0.096578 0.290426 -1.260933 -0.018062 -0.069873 -1.260924 -0.025030 -0.069361 -11.491430 2.401498 9.977545 0.000000 0.000000 0.000000 -0.110110 7.393339 -9.903505 -2.548948 -24.718052 -68.921761 -0.270075 -0.068130 -4.886648 -12.521740 8.068427 10.291524 0.000000 -0.000000 0.000000 -2.527685 -11.563215 -3.084239 -53.647972 12.904294 20.086542 -174.027695 61.994747 175.206512 -32.829182 -4.867793 -22.940142 0.000000 0.000000 0.000000 
-0.002722 -0.275211 0.029244 1.201218 -4.131706 -1.297622 -2.512383 6.658735 1.572734 7.539757 0.004973 -0.557964 -6.394846 -0.107014 0.508412 0.000000 0.000000 0.000000 -5.747276 -7.151537 2.957580 13.262649 1.807777 -1.179125 -8.498424 -0.022597 -1.242501 0.000000 0.000000 0.000000 0.701001 -0.091133 0.296565 -1.259460 -0.016065 -0.071332 -1.259455 -0.022876 -0.070874 -11.470179 2.402922 9.998834 0.000000 0.000000 0.000000 -0.115523 7.403488 -9.883006 -2.496931 -24.720837 -68.969574 -0.265409 0.029968 -4.886394 -12.500223 8.088875 10.119086 0.000000 0.000000 -0.000000 -2.522113 -11.533643 -3.063705 -53.398132 12.627427 19.850967 -173.640442 63.446140 174.858688 -38.165245 -6.505205 -25.897282 0.000000 0.000000 -0.000000 
